<svg width="48" height="48" viewBox="0 0 48 48" fill="none" xmlns="http://www.w3.org/2000/svg">
<path d="M24 3.875C22.8563 3.875 21.7594 4.32935 20.9506 5.1381C20.1419 5.94685 19.6875 7.04375 19.6875 8.1875C19.6875 9.33125 20.1419 10.4281 20.9506 11.2369C21.7594 12.0456 22.8563 12.5 24 12.5C25.1437 12.5 26.2406 12.0456 27.0494 11.2369C27.8581 10.4281 28.3125 9.33125 28.3125 8.1875C28.3125 7.04375 27.8581 5.94685 27.0494 5.1381C26.2406 4.32935 25.1437 3.875 24 3.875ZM16.8125 8.1875C16.8125 6.28126 17.5698 4.45309 18.9177 3.10517C20.2656 1.75725 22.0938 1 24 1C25.9062 1 27.7344 1.75725 29.0823 3.10517C30.4302 4.45309 31.1875 6.28126 31.1875 8.1875C31.1875 10.0937 30.4302 11.9219 29.0823 13.2698C27.7344 14.6177 25.9062 15.375 24 15.375C22.0938 15.375 20.2656 14.6177 18.9177 13.2698C17.5698 11.9219 16.8125 10.0937 16.8125 8.1875ZM39.8125 6.75C39.05 6.75 38.3187 7.0529 37.7796 7.59207C37.2404 8.13124 36.9375 8.8625 36.9375 9.625C36.9375 10.3875 37.2404 11.1188 37.7796 11.6579C38.3187 12.1971 39.05 12.5 39.8125 12.5C40.575 12.5 41.3063 12.1971 41.8454 11.6579C42.3846 11.1188 42.6875 10.3875 42.6875 9.625C42.6875 8.8625 42.3846 8.13124 41.8454 7.59207C41.3063 7.0529 40.575 6.75 39.8125 6.75ZM34.0625 9.625C34.0625 8.10001 34.6683 6.63747 35.7466 5.55914C36.825 4.4808 38.2875 3.875 39.8125 3.875C41.3375 3.875 42.8 4.4808 43.8784 5.55914C44.9567 6.63747 45.5625 8.10001 45.5625 9.625C45.5625 11.15 44.9567 12.6125 43.8784 13.6909C42.8 14.7692 41.3375 15.375 39.8125 15.375C38.2875 15.375 36.825 14.7692 35.7466 13.6909C34.6683 12.6125 34.0625 11.15 34.0625 9.625ZM5.3125 9.625C5.3125 8.8625 5.6154 8.13124 6.15457 7.59207C6.69373 7.0529 7.425 6.75 8.1875 6.75C8.95 6.75 9.68126 7.0529 10.2204 7.59207C10.7596 8.13124 11.0625 8.8625 11.0625 9.625C11.0625 10.3875 10.7596 11.1188 10.2204 11.6579C9.68126 12.1971 8.95 12.5 8.1875 12.5C7.425 12.5 6.69373 12.1971 6.15457 11.6579C5.6154 11.1188 5.3125 10.3875 5.3125 9.625ZM8.1875 3.875C6.66251 3.875 5.19997 4.4808 4.12164 5.55914C3.0433 6.63747 2.4375 8.10001 2.4375 9.625C2.4375 11.15 3.0433 12.6125 4.12164 13.6909C5.19997 14.7692 6.66251 15.375 8.1875 15.375C9.71249 15.375 11.175 14.7692 12.2534 13.6909C13.3317 12.6125 13.9375 11.15 13.9375 9.625C13.9375 8.10001 13.3317 6.63747 12.2534 5.55914C11.175 4.4808 9.71249 3.875 8.1875 3.875ZM9.9125 38.3693C9.13404 38.4082 8.35579 38.2885 7.62503 38.0174C6.89426 37.7463 6.22625 37.3295 5.66156 36.7922C5.09688 36.255 4.64732 35.6085 4.3402 34.8921C4.03308 34.1758 3.8748 33.4044 3.875 32.625V21.8438C3.875 21.6531 3.95073 21.4703 4.08552 21.3355C4.22031 21.2007 4.40313 21.125 4.59375 21.125H9.66525C9.78025 20.0699 10.154 19.0895 10.7146 18.25H4.59375C2.61 18.25 1 19.86 1 21.8438V32.625C0.999866 33.8558 1.26317 35.0725 1.77223 36.1931C2.28129 37.3137 3.0243 38.3124 3.95135 39.1221C4.87839 39.9318 5.96799 40.5337 7.14694 40.8873C8.32589 41.2409 9.56687 41.3381 10.7865 41.1724C10.3995 40.2705 10.1067 39.3312 9.9125 38.3693ZM37.2135 41.1724C38.4331 41.3381 39.6741 41.2409 40.8531 40.8873C42.032 40.5337 43.1216 39.9318 44.0487 39.1221C44.9757 38.3124 45.7187 37.3137 46.2278 36.1931C46.7368 35.0725 47.0001 33.8558 47 32.625V21.8438C47 19.86 45.39 18.25 43.4062 18.25H37.2854C37.8489 19.0895 38.2198 20.0699 38.3348 21.125H43.4062C43.5969 21.125 43.7797 21.2007 43.9145 21.3355C44.0493 21.4703 44.125 21.6531 44.125 21.8438V32.625C44.1252 33.4044 43.9669 34.1758 43.6598 34.8921C43.3527 35.6085 42.9031 36.255 42.3384 36.7922C41.7738 37.3295 41.1057 37.7463 40.375 38.0174C39.6442 38.2885 38.866 38.4082 38.0875 38.3693C37.8933 39.3312 37.6004 40.2705 37.2135 41.1724ZM16.0938 18.25C14.11 18.25 12.5 19.86 12.5 21.8438V35.5C12.5 38.55 13.7116 41.4751 15.8683 43.6317C18.0249 45.7884 20.95 47 24 47C27.05 47 29.9751 45.7884 32.1317 43.6317C34.2884 41.4751 35.5 38.55 35.5 35.5V21.8438C35.5 19.86 33.89 18.25 31.9062 18.25H16.0938ZM15.375 21.8438C15.375 21.6531 15.4507 21.4703 15.5855 21.3355C15.7203 21.2007 15.9031 21.125 16.0938 21.125H31.9062C32.0969 21.125 32.2797 21.2007 32.4145 21.3355C32.5493 21.4703 32.625 21.6531 32.625 21.8438V35.5C32.625 37.7875 31.7163 39.9813 30.0988 41.5988C28.4813 43.2163 26.2875 44.125 24 44.125C21.7125 44.125 19.5187 43.2163 17.9012 41.5988C16.2837 39.9813 15.375 37.7875 15.375 35.5V21.8438Z" fill="#474646"/>
</svg>
