<svg width="32" height="32" viewBox="0 0 32 32" fill="none" xmlns="http://www.w3.org/2000/svg">
<g clip-path="url(#clip0_262_43)">
<path d="M27.0345 24C27.0461 24.5327 26.9549 25.0624 26.7661 25.5581C26.5774 26.0537 26.2949 26.5053 25.9353 26.8864C25.5758 27.2674 25.1463 27.5702 24.6722 27.777C24.198 27.9837 23.6888 28.0903 23.1744 28.0905C22.6599 28.0906 22.1507 27.9843 21.6764 27.7777C21.2022 27.5712 20.7726 27.2687 20.4128 26.8878C20.0531 26.5069 19.7704 26.0555 19.5814 25.5599C19.3924 25.0644 19.3009 24.5347 19.3123 24.002C19.3346 22.9569 19.7511 21.9624 20.4725 21.2313C21.194 20.5002 22.1631 20.0907 23.1724 20.0905C24.1818 20.0902 25.1511 20.4992 25.8729 21.2299C26.5947 21.9606 27.0117 22.9549 27.0345 24Z" fill="#474646"/>
<path d="M22.5931 32C21.0483 32 19.5034 31.6 18.1517 30.6L6.17931 24C5.21379 23.2 4.44138 22.8 3.66897 22C1.35172 19.6 0 16.2 0 12.8C0 9.4 1.35172 6.2 3.66897 3.8C5.98621 1.4 9.07586 0 12.3586 0C15.6414 0 18.731 1.4 21.2414 3.8C22.0138 4.6 22.4 5.2 23.1724 6.2L29.931 19C31.8621 22.4 31.2828 26.6 28.5793 29.4C26.8414 31.2 24.9103 32 22.5931 32ZM12.3586 2C9.65517 2 6.95172 3.2 5.02069 5.2C3.08965 7.2 1.93103 10 1.93103 12.8C1.93103 15.8 3.08965 18.4 5.02069 20.4C5.6 21 6.17931 21.4 7.14483 22L19.3103 28.8C20.469 29.6 21.6276 29.8 22.7862 29.8C24.5241 29.8 26.069 29.2 27.2276 27.8C29.3517 25.6 29.7379 22.4 28.1931 19.8L21.4345 7C20.8552 6.2 20.469 5.6 19.8897 5C17.7655 3.2 15.2552 2 12.3586 2Z" fill="#474646"/>
<path d="M21.2414 14V12L18.5379 11C18.3448 10.6 18.3448 10.4 18.1517 10L19.3103 7.4L17.9586 6L15.4483 7.2C15.0621 7 14.869 7 14.4828 6.8L13.5172 4H11.5862L10.6207 6.8C10.2345 7 10.0414 7 9.65516 7.2L7.14482 6L5.7931 7.4L6.95172 10C6.75861 10.4 6.75861 10.6 6.56551 11L3.86206 12V14L6.56551 15C6.75861 15.4 6.75861 15.6 6.95172 16L5.7931 18.6L7.14482 20L9.65516 18.8C10.0414 19 10.2345 19.2 10.6207 19.2L11.5862 22H13.5172L14.4828 19.2C14.869 19 15.0621 19 15.4483 18.8L17.9586 20L19.3103 18.6L18.1517 16C18.3448 15.6 18.5379 15.4 18.5379 15L21.2414 14ZM12.5517 16C11.0069 16 9.65516 14.6 9.65516 13C9.65516 11.4 11.0069 10 12.5517 10C14.0965 10 15.4483 11.4 15.4483 13C15.4483 14.6 14.0965 16 12.5517 16Z" fill="#474646"/>
</g>
<defs>
<clipPath id="clip0_262_43">
<rect width="32" height="32" fill="white"/>
</clipPath>
</defs>
</svg>
