<svg width="48" height="48" viewBox="0 0 48 48" fill="none" xmlns="http://www.w3.org/2000/svg">
<path d="M17.6522 36V32.1667C17.6522 27.8542 14.1559 24.5 9.75565 24.5H9.8613C5.45913 24.5 2 27.8542 2 32.1667V36M23.5217 14.9167H47M23.5217 34.0833H43.087M23.5217 24.5H37.2174M9.82609 24.5C8.26938 24.5 6.77643 23.8942 5.67568 22.8159C4.57492 21.7375 3.95652 20.275 3.95652 18.75C3.95652 17.225 4.57492 15.7625 5.67568 14.6841C6.77643 13.6058 8.26938 13 9.82609 13C11.3828 13 12.8757 13.6058 13.9765 14.6841C15.0773 15.7625 15.6957 17.225 15.6957 18.75C15.6957 20.275 15.0773 21.7375 13.9765 22.8159C12.8757 23.8942 11.3828 24.5 9.82609 24.5Z" stroke="#474646" stroke-width="2"/>
</svg>
