<svg width="32" height="32" viewBox="0 0 32 32" fill="none" xmlns="http://www.w3.org/2000/svg">
<g clip-path="url(#clip0_262_52)">
<path d="M7.46 25H9.46V16H7.46V25ZM22.54 25H24.54V6H22.54V25ZM15 25H17V20H15V25ZM15 16H17V12H15V16ZM3.23 32C2.31 32 1.542 31.692 0.926 31.076C0.308666 30.4587 0 29.69 0 28.77V3.23C0 2.31 0.308666 1.542 0.926 0.926C1.542 0.308666 2.31 0 3.23 0H28.77C29.69 0 30.458 0.308666 31.074 0.926C31.6913 1.542 32 2.31 32 3.23V28.77C32 29.69 31.692 30.458 31.076 31.074C30.4587 31.6913 29.69 32 28.77 32H3.23ZM3.23 30H28.77C29.0767 30 29.3587 29.872 29.616 29.616C29.872 29.3587 30 29.0767 30 28.77V3.23C30 2.92333 29.872 2.64133 29.616 2.384C29.3587 2.128 29.0767 2 28.77 2H3.23C2.92333 2 2.64133 2.128 2.384 2.384C2.128 2.64133 2 2.92333 2 3.23V28.77C2 29.0767 2.128 29.3587 2.384 29.616C2.64133 29.872 2.92333 30 3.23 30Z" fill="#474646"/>
</g>
<defs>
<clipPath id="clip0_262_52">
<rect width="32" height="32" fill="white"/>
</clipPath>
</defs>
</svg>
