<svg width="32" height="26" viewBox="0 0 32 26" fill="none" xmlns="http://www.w3.org/2000/svg">
<g clip-path="url(#clip0_262_50)">
<path d="M28.3582 0.856086C28.0161 0.626852 27.6248 0.48817 27.2189 0.452231C26.8129 0.416292 26.4046 0.484196 26.0299 0.649974L13.7512 5.6585C13.4605 5.78104 13.1497 5.84403 12.8358 5.844H4.97512C4.31538 5.844 3.68266 6.11545 3.21615 6.59861C2.74964 7.08178 2.48756 7.7371 2.48756 8.42041V8.62652H0V14.8099H2.48756V15.0778C2.50315 15.7504 2.7721 16.3899 3.23693 16.8598C3.70176 17.3297 4.3256 17.5926 4.97512 17.5924L7.9602 24.1468C8.16233 24.5881 8.48056 24.9615 8.87833 25.224C9.27611 25.4865 9.73731 25.6275 10.209 25.6308H11.4627C12.119 25.6253 12.7466 25.3515 13.2088 24.8689C13.671 24.3863 13.9304 23.7341 13.9303 23.0544V17.8397L26.0299 22.8483C26.3275 22.9709 26.6449 23.0339 26.9652 23.0338C27.4621 23.0255 27.946 22.8679 28.3582 22.5803C28.6855 22.3514 28.9555 22.0451 29.1458 21.6867C29.3362 21.3283 29.4414 20.9281 29.4527 20.5192V2.97904C29.4509 2.55964 29.3503 2.14703 29.1595 1.77707C28.9688 1.4071 28.6937 1.09095 28.3582 0.856086ZM11.4428 8.42041V15.0778H4.97512V8.42041H11.4428ZM11.4428 23.0544H10.1891L7.74129 17.5924H11.4428V23.0544ZM14.6667 15.387C14.4304 15.2619 14.184 15.1585 13.9303 15.0778V8.27613C14.1816 8.22244 14.4279 8.14659 14.6667 8.04941L26.9652 2.97904V20.4574L14.6667 15.387ZM29.5124 9.1418V14.2946C30.1722 14.2946 30.8049 14.0232 31.2714 13.54C31.7379 13.0568 32 12.4015 32 11.7182C32 11.0349 31.7379 10.3796 31.2714 9.89641C30.8049 9.41324 30.1722 9.1418 29.5124 9.1418Z" fill="#474646"/>
</g>
<defs>
<clipPath id="clip0_262_50">
<rect width="32" height="26" fill="white"/>
</clipPath>
</defs>
</svg>
