<svg width="32" height="32" viewBox="0 0 32 32" fill="none" xmlns="http://www.w3.org/2000/svg">
<g clip-path="url(#clip0_262_47)">
<path d="M7.38463 3.04V7.36H3.07694V3.04H7.38463ZM0.923096 0.880005V9.52H9.53848V0.880005H0.923096ZM18.1539 6.28V10.6H13.8462V6.28H18.1539ZM11.6923 4.12V12.76H20.3077V4.12H11.6923ZM7.38463 16V20.32H3.07694V16H7.38463ZM0.923096 13.84V22.48H9.53848V13.84H0.923096Z" fill="#474646"/>
<path d="M22.4615 9.52002V16H16V22.48H9.53845V31.12H31.0769V9.52002H22.4615ZM18.1538 18.16H22.4615V22.48H18.1538V18.16ZM16 28.96H11.6923V24.64H16V28.96ZM22.4615 28.96H18.1538V24.64H22.4615V28.96ZM28.9231 28.96H24.6154V24.64H28.9231V28.96ZM28.9231 22.48H24.6154V18.16H28.9231V22.48ZM24.6154 16V11.68H28.9231V16H24.6154Z" fill="#474646"/>
</g>
<defs>
<clipPath id="clip0_262_47">
<rect width="32" height="32" fill="white"/>
</clipPath>
</defs>
</svg>
